<svg viewBox="0 0 16 16" xmlns="http://www.w3.org/2000/svg" xmlns:xlink="http://www.w3.org/1999/xlink" width="16.000000" height="16.000000" fill="none" customFrame="#000000">
	<rect id="icon_line/Edit_rectangle" width="16.000000" height="16.000000" x="0.000000" y="0.000000" />
	<path id="Rectangle 14 (Stroke)" d="M4.66634 2.66671C3.56177 2.66671 2.66634 3.56214 2.66634 4.66671L2.66634 11.3334C2.66634 12.4379 3.56177 13.3334 4.66634 13.3334L11.333 13.3334C12.4376 13.3334 13.333 12.4379 13.333 11.3334L13.333 7.33337C13.333 6.96518 13.6315 6.66671 13.9997 6.66671C14.3679 6.66671 14.6663 6.96518 14.6663 7.33337L14.6663 11.3334C14.6663 13.1743 13.174 14.6667 11.333 14.6667L4.66634 14.6667C2.82539 14.6667 1.33301 13.1743 1.33301 11.3334L1.33301 4.66671C1.33301 2.82576 2.82539 1.33337 4.66634 1.33337L8.66634 1.33337C9.03453 1.33337 9.33301 1.63185 9.33301 2.00004C9.33301 2.36823 9.03453 2.66671 8.66634 2.66671L4.66634 2.66671Z" fill="rgb(74,81,84)" fill-rule="evenodd" />
	<path id="Vector (Stroke)" d="M12.7979 2.66671C12.656 2.66671 12.5199 2.72308 12.4195 2.82344L7.16818 8.0748L6.91593 9.0838L7.92493 8.83155L13.1763 3.58018C13.2766 3.47983 13.333 3.34373 13.333 3.20181C13.333 3.05989 13.2766 2.92379 13.1763 2.82344C13.0759 2.72308 12.9398 2.66671 12.7979 2.66671ZM11.4767 1.88063C11.8271 1.53023 12.3024 1.33337 12.7979 1.33337C13.2935 1.33337 13.7687 1.53023 14.1191 1.88063C14.4695 2.23103 14.6664 2.70627 14.6664 3.20181C14.6664 3.69735 14.4695 4.17259 14.1191 4.52299L8.73717 9.90493C8.65173 9.99037 8.54468 10.051 8.42746 10.0803L6.16138 10.6468C5.9342 10.7036 5.69387 10.637 5.52828 10.4714C5.3627 10.3059 5.29613 10.0655 5.35293 9.83835L5.91945 7.57227C5.94875 7.45505 6.00936 7.348 6.0948 7.26256L11.4767 1.88063Z" fill="rgb(74,81,84)" fill-rule="evenodd" />
	<path id="Vector 20 (Stroke)" d="M10.1953 3.52864C10.4556 3.26829 10.8777 3.26829 11.1381 3.52864L12.4714 4.86197C12.7318 5.12232 12.7318 5.54443 12.4714 5.80478C12.2111 6.06513 11.7889 6.06513 11.5286 5.80478L10.1953 4.47145C9.93491 4.2111 9.93491 3.78899 10.1953 3.52864Z" fill="rgb(74,81,84)" fill-rule="evenodd" />
</svg>
