<svg viewBox="0 0 11 20" xmlns="http://www.w3.org/2000/svg" xmlns:xlink="http://www.w3.org/1999/xlink" width="11.000000" height="20.000000" fill="none" customFrame="#000000">
	<defs>
		<clipPath id="clipPath_0">
			<rect width="11.000000" height="5.000000" x="0.000000" y="10.000000" fill="rgb(255,255,255)" />
		</clipPath>
		<clipPath id="clipPath_1">
			<rect width="11.000000" height="5.000000" x="0.000000" y="4.000000" fill="rgb(255,255,255)" />
		</clipPath>
	</defs>
	<rect id="_sorter" width="11.000000" height="20.000000" x="0.000000" y="0.000000" />
	<g id="caret-down" clip-path="url(#clipPath_0)" customFrame="url(#clipPath_0)">
		<rect id="caret-down" width="11.000000" height="5.000000" x="0.000000" y="10.000000" />
		<path id="Vector" d="M9.46854 9.93848L1.53146 9.93848C1.2934 9.93848 1.16047 10.1898 1.3079 10.3614L5.27644 14.9632C5.39003 15.0949 5.60876 15.0949 5.72356 14.9632L9.6921 10.3614C9.83953 10.1898 9.7066 9.93848 9.46854 9.93848Z" fill="rgb(176,176,176)" fill-rule="nonzero" />
	</g>
	<g id="caret-up" clip-path="url(#clipPath_1)" customFrame="url(#clipPath_1)">
		<rect id="caret-up" width="11.000000" height="5.000000" x="0.000000" y="4.000000" />
		<path id="Vector" d="M9.6921 8.63903L5.72356 4.03727C5.60997 3.90555 5.39124 3.90555 5.27644 4.03727L1.3079 8.63903C1.16047 8.81063 1.2934 9.06199 1.53146 9.06199L9.46854 9.06199C9.7066 9.06199 9.83953 8.81063 9.6921 8.63903Z" fill="rgb(176,176,176)" fill-rule="nonzero" />
	</g>
</svg>
