<svg xmlns="http://www.w3.org/2000/svg" width="16" height="16" fill="none"><path d="M0 0h16v16H0z"/><path d="M4.666 2.667a2 2 0 00-2 2v6.666a2 2 0 002 2h6.667a2 2 0 002-2v-4a.667.667 0 011.333 0v4a3.333 3.333 0 01-3.333 3.334H4.666a3.333 3.333 0 01-3.333-3.334V4.667a3.333 3.333 0 013.333-3.334h4a.667.667 0 010 1.334h-4z" fill="#4A5154" fill-rule="evenodd"/><path d="M12.798 2.667a.535.535 0 00-.379.156L7.17 8.075l-.253 1.009 1.009-.252 5.251-5.252a.535.535 0 00-.378-.913zm-1.321-.786a1.869 1.869 0 012.642 2.642L8.737 9.905a.667.667 0 01-.31.175l-2.266.567a.667.667 0 01-.808-.809l.566-2.266a.667.667 0 01.176-.31l5.382-5.381z" fill="#4A5154" fill-rule="evenodd"/><path d="M10.195 3.529c.26-.26.683-.26.943 0l1.333 1.333a.667.667 0 11-.942.943L10.195 4.47a.667.667 0 010-.942z" fill="#4A5154" fill-rule="evenodd"/></svg>