<svg xmlns="http://www.w3.org/2000/svg" width="11" height="20" fill="none"><defs><clipPath id="a"><path fill="#FFF" d="M0 10h11v5H0z"/></clipPath><clipPath id="b"><path fill="#FFF" d="M0 4h11v5H0z"/></clipPath></defs><path d="M0 0h11v20H0z"/><g clip-path="url(#a)"><path d="M0 10h11v5H0z"/><path d="M9.469 9.938H1.53c-.238 0-.37.252-.223.423l3.968 4.602a.302.302 0 00.448 0l3.968-4.602c.148-.171.015-.423-.223-.423z" fill="#B0B0B0"/></g><g clip-path="url(#b)"><path d="M0 4h11v5H0z"/><path d="M9.692 8.639L5.724 4.037a.302.302 0 00-.448 0L1.308 8.64c-.148.172-.015.423.223.423H9.47c.238 0 .37-.251.223-.423z" fill="#B0B0B0"/></g></svg>